<svg id="Layer_1" data-name="Layer 1" xmlns="http://www.w3.org/2000/svg" viewBox="0 0 500 500"><defs><style>.cls-1{fill:#20c682;}.cls-2{fill:none;stroke:#1c1c47;stroke-linecap:round;stroke-linejoin:round;stroke-width:9px;}</style></defs><title>Deadlines Green</title><path class="cls-1" d="M200.2,45.2C118.5,12.6,28.4,68.1,20.8,155.8L9.2,290.7C4,350.9,56.7,399.9,116.4,390.4l51-8.2a92.9,92.9,0,0,1,92.1,40.4h0c38.5,58.2,125.1,54.7,158.8-6.4l56.6-102.6c38.1-69.1,7-156-66.2-185.2L200.2,45.2"/><path class="cls-2" d="M229.2,54.9a182.3,182.3,0,0,1,90.4,340.6"/><path class="cls-2" d="M46.9,237.2A182.3,182.3,0,0,1,229.2,54.9"/><path class="cls-2" d="M229.2,54.9a182.3,182.3,0,0,1,90.4,340.6"/><path class="cls-2" d="M46.9,237.2A182.3,182.3,0,0,1,229.2,54.9"/><path class="cls-2" d="M229.2,419.5a182.4,182.4,0,0,1-168-111.3"/><circle class="cls-2" cx="229.2" cy="237.2" r="17.8"/><line class="cls-2" x1="239.5" y1="251.7" x2="265.5" y2="288.5"/><line class="cls-2" x1="229.2" y1="219.3" x2="229.2" y2="110.1"/><line class="cls-2" x1="165" y1="255" x2="136.5" y2="262.9"/><line class="cls-2" x1="212" y1="241.9" x2="189.2" y2="248.3"/></svg>